<svg id="Layer_1" data-name="Layer 1" xmlns="http://www.w3.org/2000/svg" viewBox="0 0 1024 1024"><defs><style>.cls-1{fill:#fff;}.cls-2{fill:#f29100;}.cls-3{fill:#a8eaff;}.cls-4{fill:#2f9bdd;}.cls-5{fill:#e85153;}</style></defs><rect class="cls-1" x="272.71" y="180.99" width="583.19" height="562.85" rx="17.21"/><rect class="cls-2" x="164.7" y="225.22" width="583.19" height="562.85" rx="20.78"/><rect class="cls-3" x="229.26" y="280.15" width="583.19" height="562.85" rx="28.38"/><path class="cls-4" d="M253.63,843c-15.71,0-27.31-14.26-23.71-29.13C308.19,490.39,364.69,391.7,406.17,394.33c74.54,4.72,112.82,337.46,202.6,335.73,37.07-.72,51.48-57.84,92.78-57.47,44,.38,81,65.7,109.29,138.28,6,15.52-5.69,32.14-22.76,32.14Z"/><circle class="cls-1" cx="520.86" cy="561.58" r="86.55"/><path class="cls-5" d="M520.86,656a94.39,94.39,0,1,1,94.39-94.39A94.39,94.39,0,0,1,520.86,656Zm0-175.78a81.39,81.39,0,1,0,81.39,81.39h0a81.49,81.49,0,0,0-81.39-81.42Z"/><path class="cls-5" d="M506,526l35.54,35.54L506,597.11Z"/><circle class="cls-4" cx="675.42" cy="422.39" r="51.29"/><path class="cls-1" d="M965.07,470.93l44,44a3.52,3.52,0,0,1,0,5l0,0-44,44a3.52,3.52,0,0,1-6-2.49v-88a3.51,3.51,0,0,1,6-2.48Z"/><path class="cls-1" d="M58.87,563.93l-44-44a3.56,3.56,0,0,1,0-5l44-44a3.55,3.55,0,0,1,6.05,2.51v87.93a3.55,3.55,0,0,1-6.05,2.56Z"/><path class="cls-3" d="M304.6,806.49c-2.79.33-7.33,2.86-9.89,4-2.27,1-5.49,2.34-8.7,1.18-1.41-.5-3.68-1.89-3.76-3.66s2.12-3.33,6.53-6.62l1.78-1.28c2.33-1.72,8.22-6,8.41-12,.1-3.2-1.44-7.2-4.74-9a9.82,9.82,0,0,0-6.63-.79c-.68.13-2.54.54-5.73,2.86a28.59,28.59,0,0,0-8.41,9.1,22.39,22.39,0,0,0-3.47,10,20.23,20.23,0,0,0,1.38,9.2,16.52,16.52,0,0,0,11.57,10.29,22.35,22.35,0,0,0,8.3.7c6.39-.65,10.47-3.78,13.16-5.83,3.68-2.82,3.83-4.25,3.76-4.94a3.83,3.83,0,0,0-2.37-3.07A2.68,2.68,0,0,0,304.6,806.49Zm-26-6.24c-1.35-1,.79-7.26,5-10.58,1.3-1,3.91-2.77,4.95-2s-.29,4.48-.4,4.75a11.46,11.46,0,0,1-3,4c-1.3,1.27-5.35,4.76-6.56,3.83Z"/><rect class="cls-3" x="274.49" y="757.77" width="5.86" height="17.04" rx="2.88" transform="translate(-264.52 157.64) rotate(-21.78)"/><rect class="cls-3" x="282.15" y="761.12" width="17.04" height="5.86" rx="2.88" transform="translate(-507.09 942.5) rotate(-81.78)"/><rect class="cls-3" x="263.93" y="765.09" width="5.86" height="17.04" rx="2.88" transform="translate(-506.02 504.64) rotate(-51.78)"/><rect class="cls-3" x="258.8" y="776.58" width="5.86" height="17.04" rx="2.88" transform="translate(-557.46 902.66) rotate(-79.73)"/><rect class="cls-3" x="293.69" y="765.89" width="17.04" height="5.86" rx="2.88" transform="translate(-496.76 558.9) rotate(-53.82)"/></svg>